<?xml version="1.0" encoding="UTF-8"?>
<svg version="1.1" viewBox="0 0 48 48" xml:space="preserve" xmlns="http://www.w3.org/2000/svg"><defs><style>.b{fill:none;stroke:#000;stroke-linecap:round;stroke-linejoin:round;stroke-width:1px;}</style></defs><path class="b" d="m40.5 5.5h-33a2 2 0 0 0-2 2v33a2 2 0 0 0 2 2h33a2 2 0 0 0 2-2v-33a2 2 0 0 0-2-2z"/><rect class="b" x="23.112" y="13.992" width="5.3" height="8" rx="2.65" ry="2.65"/><path class="b" d="m19.137 16.62c0-1.4636-1.1864-2.65-2.65-2.65h-1e-5c-1.4636 0-2.65 1.1864-2.65 2.65v2.7c0 1.4636 1.1864 2.65 2.65 2.65h1e-5c1.4636 0 2.65-1.1864 2.65-2.65h-2.65"/><path class="b" d="m36.108 10.43h-24.21a1.4673 1.4673 0 0 0-1.4673 1.4673v24.21a1.4673 1.4673 0 0 0 1.4673 1.4673h24.21a1.4673 1.4673 0 0 0 1.4673-1.4673v-24.21a1.4673 1.4673 0 0 0-1.4673-1.4673z"/><path class="b" d="m13.945 33.64h9.5598"/></svg>
