<?xml version="1.0" encoding="UTF-8"?>
<svg version="1.1" viewBox="0 0 48 48" xml:space="preserve" xmlns="http://www.w3.org/2000/svg"><defs><style>.b{fill:none;stroke:#000;stroke-linecap:round;stroke-linejoin:round;stroke-width:1px;}</style></defs><path class="b" d="m40.525 5.5079h-33a2 2 0 0 0-2 2v33a2 2 0 0 0 2 2h33a2 2 0 0 0 2-2v-33a2 2 0 0 0-2-2z" /><path class="b" d="m36.133 10.438h-24.21a1.4673 1.4673 0 0 0-1.4673 1.4673v24.21a1.4673 1.4673 0 0 0 1.4673 1.4673h24.21a1.4673 1.4673 0 0 0 1.4673-1.4673v-24.21a1.4673 1.4673 0 0 0-1.4673-1.4673z"/><path class="b" d="m13.97 33.648h9.5598"/><polyline class="b" transform="translate(-182.57 -26.696)" points="205.83 48.641 205.83 40.65 209.83 48.65 213.83 40.662 213.83 48.65"/><path class="b" d="m13.527 21.954v-8h2.619c1.4806 0 2.681 1.2029 2.681 2.6867 0 1.4838-1.2003 2.6867-2.681 2.6867h-2.619"/><line class="b" x1="16.146" x2="18.765" y1="19.327" y2="21.952"/></svg>
