<?xml version="1.0" encoding="UTF-8"?>
<svg id="svg7" version="1.1" viewBox="0 0 48 48" xml:space="preserve" xmlns="http://www.w3.org/2000/svg"><defs id="defs1"><style id="style1">.b{fill:none;stroke:#000;stroke-linecap:round;stroke-linejoin:round;stroke-width:2px;}</style></defs><path id="path1" d="m7.5254 4.5078c-1.645 0-3 1.355-3 3v33c0 1.645 1.355 3 3 3h33c1.645 1e-6 3-1.355 3-3v-33c0-1.645-1.355-3-3-3zm0 2h33c0.56413 0 1 0.43587 1 1v33c0 0.56413-0.43587 1-1 1h-33c-0.56413 0-1-0.43587-1-1v-33c0-0.56413 0.43587-1 1-1z" stop-color="#000000" stroke-linecap="round" stroke-linejoin="round"/><g id="g7" class="b"><path id="path2" d="m16.506 10.119a1.0001 1.0001 0 0 0-0.03906 2e-3s-0.85657 0.04343-1.7363 0.53906c-0.87976 0.49559-1.8419 1.5682-1.9805 3.2304-0.23495 2.819-1.1289 19.184-1.1289 19.184a1.0001 1.0001 0 0 0 0.04297 0.11523l-0.04297-0.04102s0.01058 1.1883 0.60547 2.4238c0.59489 1.2356 1.9553 2.5983 4.1855 2.6875 4.8061 0.19224 15.51 1e-3 15.566 0 0 0 1.1694 0.02631 2.2793-0.73828 1.1099-0.76459 2.123-2.3559 2.123-4.9941 0-5.8364-1.0547-18.637-1.0547-18.637a1.0001 1.0001 0 0 0-0.0059-0.05469s-0.12871-0.92733-0.7832-1.8242c-0.65449-0.89689-1.9189-1.8052-3.8418-1.8926-4.3047-0.19566-14.189 0-14.189 0zm14.098 1.998c1.3825 0.06282 1.9587 0.58136 2.3184 1.0742 0.35718 0.48947 0.41325 0.90826 0.41406 0.91406 0.0057 0.07041 1.0449 12.846 1.0449 18.422 0 2.1695-0.67549 2.9459-1.2559 3.3457s-1.1016 0.38867-1.1016 0.38867a1.0001 1.0001 0 0 0-0.03906 0s-10.85 0.18575-15.494 0c-1.5258-0.06101-2.0812-0.7639-2.4629-1.5566-0.3784-0.7859-0.40382-1.5684-0.4043-1.582 0.0057-0.1041 0.90398-16.485 1.1191-19.066 0.08686-1.0421 0.5151-1.3987 0.96875-1.6543 0.45059-0.25386 0.8616-0.28279 0.86719-0.2832 0.04683-8.8e-4 9.9334-0.18795 14.025-2e-3z" stop-color="#000000"/><path id="path3" d="m22.686 19.959a1.0001 1.0001 0 0 0-0.91992 0.61133l-3.5508 8.4375a1 1 0 0 0 0.53516 1.3086 1 1 0 0 0 1.3086-0.5332l3.293-7.8242h1.4902l3.3281 7.8086a1 1 0 0 0 1.3125 0.5293 1 1 0 0 0 0.52734-1.3125l-3.5859-8.418a1.0001 1.0001 0 0 0-0.91992-0.60742z" stop-color="#000000"/><path id="path4" d="m24.164 23.207a1.0001 1.0001 0 0 0-0.92578 0.64062l-1.9727 5.1113a1 1 0 0 0 0.57227 1.293 1 1 0 0 0 1.293-0.57227l1.0547-2.7344 1.1406 2.8574a1 1 0 0 0 1.2988 0.55859 1 1 0 0 0 0.55859-1.3008l-2.084-5.2227a1.0001 1.0001 0 0 0-0.93555-0.63086z" stop-color="#000000"/><path id="path5" d="m21.281 31.49a1 1 0 0 0-1.2812 0.59961l-0.92578 2.5566h-0.97461l0.69727-1.8652a1 1 0 0 0-0.58594-1.2871 1 1 0 0 0-1.2871 0.58594l-1.2031 3.2148a1.0001 1.0001 0 0 0 0.9375 1.3516h3.1172a1.0001 1.0001 0 0 0 0.94141-0.66016l1.1641-3.2148a1 1 0 0 0-0.59961-1.2812z" stop-color="#000000"/><path id="path6" d="m17.525 28.564 0.02148 0.17969a1.0001 1.0001 0 0 0-0.24609-0.1543s-0.01728 0.0058-0.01758 0.0059a1.0001 1.0001 0 0 0-2e-3 2e-3c-0.01849 0.0041-0.46196 0.09913-0.95312 0.37305-0.50126 0.27954-1.2266 0.87815-1.2266 1.8535 0 0.96764 0.64646 1.6559 1.1543 1.9746 0.50783 0.31867 1.002 0.41992 1.002 0.41992a1.0001 1.0001 0 0 0 0.21484 0.02344h13.146a1.0001 1.0001 0 0 0 0.24023-0.0293s0.46871-0.11 0.93555-0.43555c0.46684-0.32555 1.0312-1.0047 1.0312-1.918 0-0.92965-0.62097-1.6155-1.1172-1.9121-0.49622-0.29657-0.97852-0.36914-0.97852-0.36914a1.0001 1.0001 0 0 0-0.16602-0.01367zm0.16211 2h12.746c0.03008 0.0074 0.13201 0.02909 0.25 0.09961 0.13453 0.0804 0.14258 0.04284 0.14258 0.19531 0 0.16893-0.03847 0.18159-0.17578 0.27734-0.10781 0.07518-0.17359 0.09133-0.21484 0.10547h-12.803c-0.04436-0.01268-0.1631-0.04174-0.31445-0.13672-0.17762-0.11145-0.2168-0.13158-0.2168-0.28125 0 0.04395-0.01157 0.01208 0.19922-0.10547 0.18072-0.10079 0.33293-0.13923 0.38672-0.1543z" stop-color="#000000"/><path id="path7" d="m29.83 31.695a1 1 0 0 0-0.53516 1.3086l0.69531 1.6602h-0.84375l-0.86523-2.3203a1 1 0 0 0-1.2871-0.58789 1 1 0 0 0-0.58789 1.2871l1.1094 2.9707a1.0001 1.0001 0 0 0 0.93555 0.65039h3.043a1.0001 1.0001 0 0 0 0.92188-1.3867l-1.2773-3.0469a1 1 0 0 0-1.3086-0.53516z" stop-color="#000000"/></g></svg>
