<?xml version="1.0" encoding="UTF-8"?>
<svg id="svg4" version="1.1" viewBox="0 0 48 48" xml:space="preserve" xmlns="http://www.w3.org/2000/svg"><defs id="defs1"><style id="style1">.b{fill:none;stroke:#000;stroke-linecap:round;stroke-linejoin:round;stroke-width:2px;}</style></defs><path id="path1" d="m7.5254 4.5078c-1.645 0-3 1.355-3 3v33c0 1.645 1.355 3 3 3h33c1.645 1e-6 3-1.355 3-3v-33c0-1.645-1.355-3-3-3zm0 2h33c0.56413 0 1 0.43587 1 1v33c0 0.56413-0.43587 1-1 1h-33c-0.56413 0-1-0.43587-1-1v-33c0-0.56413 0.43587-1 1-1z" stop-color="#000000" stroke-linecap="round" stroke-linejoin="round"/><path id="path2" d="m11.924 9.4375c-1.3508 0-2.4687 1.1179-2.4687 2.4688v24.209c0 1.3508 1.1179 2.4668 2.4687 2.4668h24.209c1.3508 0 2.4668-1.116 2.4668-2.4668v-24.209c0-1.3508-1.116-2.4688-2.4668-2.4688zm0 2h24.209c0.26993 0 0.4668 0.19882 0.4668 0.46875v24.209c0 0.26993-0.19687 0.4668-0.4668 0.4668h-24.209c-0.26993 0-0.46875-0.19687-0.46875-0.4668v-24.209c0-0.26993 0.19882-0.46875 0.46875-0.46875z" stop-color="#000000" stroke-linecap="round" stroke-linejoin="round"/><path id="path3" d="m13.971 32.648a1 1 0 0 0-1 1 1 1 0 0 0 1 1h9.5586a1 1 0 0 0 1-1 1 1 0 0 0-1-1z" stop-color="#000000" stroke-linecap="round" stroke-linejoin="round"/><path id="polyline3" transform="translate(-173.3 -26.585)" d="m197.38 39.65a1 1 0 0 0-1 1v8a1.0001 1.0001 0 0 0 1 1h4a1 1 0 0 0 1-1 1 1 0 0 0-1-1h-3v-7a1 1 0 0 0-1-1z" stop-color="#000000" stroke-linecap="round" stroke-linejoin="round"/><path id="path4" d="m16.355 13.064c-2.004 0-3.6504 1.6464-3.6504 3.6504v2.6992c0 2.004 1.6464 3.6504 3.6504 3.6504 2.004 0 3.6504-1.6464 3.6504-3.6504v-0.03125a1 1 0 0 0-1-1 1 1 0 0 0-1 1v0.03125c0 0.9232-0.72719 1.6504-1.6504 1.6504-0.9232 0-1.6504-0.7272-1.6504-1.6504v-2.6992c0-0.9232 0.72719-1.6504 1.6504-1.6504 0.9232 1e-6 1.6504 0.72719 1.6504 1.6504v0.0332a1 1 0 0 0 1 1 1 1 0 0 0 1-1v-0.0332c0-2.004-1.6464-3.6504-3.6504-3.6504z" stop-color="#000000" stroke-linecap="round" stroke-linejoin="round"/></svg>
