<?xml version="1.0" encoding="UTF-8"?>
<svg id="svg5" version="1.1" viewBox="0 0 48 48" xml:space="preserve" xmlns="http://www.w3.org/2000/svg"><defs id="defs1"><style id="style1">.b{fill:none;stroke:#000;stroke-linecap:round;stroke-linejoin:round;stroke-width:2px;}</style></defs><path id="path1" d="m7.5254 4.5078c-1.645 0-3 1.355-3 3v33c0 1.645 1.355 3 3 3h33c1.645 1e-6 3-1.355 3-3v-33c0-1.645-1.355-3-3-3zm0 2h33c0.56413 0 1 0.43587 1 1v33c0 0.56413-0.43587 1-1 1h-33c-0.56413 0-1-0.43587-1-1v-33c0-0.56413 0.43587-1 1-1z" stop-color="#000000" stroke-linecap="round" stroke-linejoin="round"/><path id="path2" d="m11.924 9.4375c-1.3508 0-2.4687 1.1179-2.4687 2.4688v24.209c0 1.3508 1.1179 2.4668 2.4687 2.4668h24.209c1.3508 0 2.4668-1.116 2.4668-2.4668v-24.209c0-1.3508-1.116-2.4688-2.4668-2.4688zm0 2h24.209c0.26993 0 0.4668 0.19882 0.4668 0.46875v24.209c0 0.26993-0.19687 0.4668-0.4668 0.4668h-24.209c-0.26993 0-0.46875-0.19687-0.46875-0.4668v-24.209c0-0.26993 0.19882-0.46875 0.46875-0.46875z" stop-color="#000000" stroke-linecap="round" stroke-linejoin="round"/><path id="path3" d="m13.971 32.648a1 1 0 0 0-1 1 1 1 0 0 0 1 1h9.5586a1 1 0 0 0 1-1 1 1 0 0 0-1-1z" stop-color="#000000" stroke-linecap="round" stroke-linejoin="round"/><path id="path4" d="m13.643 13.062a1.0001 1.0001 0 0 0-1 1v8a1 1 0 0 0 1 1 1 1 0 0 0 1-1v-1.627h1.6191c2.0223 0 3.6816-1.6625 3.6816-3.6855 0-2.0231-1.6594-3.6875-3.6816-3.6875zm1 2h1.6191c0.93897 0 1.6816 0.74304 1.6816 1.6875 0 0.94451-0.74253 1.6855-1.6816 1.6855h-1.6191z" stop-color="#000000" stroke-linecap="round" stroke-linejoin="round"/><path id="line4" d="m16.264 18.436a1 1 0 0 0-0.70703 0.29297 1 1 0 0 0-2e-3 1.4141l2.6191 2.625a1 1 0 0 0 1.4141 2e-3 1 1 0 0 0 2e-3 -1.4141l-2.6191-2.625a1 1 0 0 0-0.70703-0.29492z" stop-color="#000000" stroke-linecap="round" stroke-linejoin="round"/><path id="path5" d="m22.695 13.062a1.0001 1.0001 0 0 0-1 1v8a1.0001 1.0001 0 0 0 1 1h1.7988c2.4734 0 4.5-2.0266 4.5-4.5v-1c0-2.4734-2.0266-4.5-4.5-4.5zm1 2h0.79883c1.3926 0 2.5 1.1074 2.5 2.5v1c0 1.3926-1.1074 2.5-2.5 2.5h-0.79883z" stop-color="#000000" stroke-linecap="round" stroke-linejoin="round"/></svg>
