<?xml version="1.0" encoding="UTF-8"?>
<svg id="svg13" version="1.1" viewBox="0 0 48 48" xml:space="preserve" xmlns="http://www.w3.org/2000/svg"><defs id="defs1"><style id="style1">.b{fill:none;stroke:#000;stroke-linecap:round;stroke-linejoin:round;stroke-width:2px;}</style></defs><path id="path1" d="m7.5254 4.5078c-1.645 0-3 1.355-3 3v33c0 1.645 1.355 3 3 3h33c1.645 1e-6 3-1.355 3-3v-33c0-1.645-1.355-3-3-3zm0 2h33c0.56413 0 1 0.43587 1 1v33c0 0.56413-0.43587 1-1 1h-33c-0.56413 0-1-0.43587-1-1v-33c0-0.56413 0.43587-1 1-1z" stop-color="#000000" stroke-linecap="round" stroke-linejoin="round"/><g id="g13" class="b"><path id="path2" d="m13.996 9.8906a1.0001 1.0001 0 0 0-1 1v1.1953c0 0.46598-0.05907 0.65684-0.30859 1.1387-0.24952 0.48183-0.70577 1.1899-1.3438 2.3301-1.3464 2.4062-1.375 4.3076-1.375 4.3105v2e-3c-7.4e-6 0.0035-0.025391 12.552-0.025391 14.104 0 1.1208 0.65434 1.9421 1.2324 2.3496 0.57808 0.40751 1.1621 0.53711 1.1621 0.53711a1.0001 1.0001 0 0 0 0.22461 0.02539h7.6758a1.0001 1.0001 0 0 0 1-1v-16.043c0-1.9128-0.8496-3.4754-1.3555-4.3516-0.66769-1.1565-1.1551-1.8686-1.4219-2.3535-0.2668-0.48496-0.33008-0.67024-0.33008-1.1562v-1.0879a1.0001 1.0001 0 0 0-1-1zm1 2h1.1348v0.08789c0 0.79109 0.22739 1.4836 0.57812 2.1211 0.35074 0.63754 0.80783 1.2913 1.4414 2.3887 0.46162 0.79955 1.0879 2.0512 1.0879 3.3516v15.043h-6.5039c-0.04327-0.01227-0.20089-0.0525-0.40625-0.19726-0.23197-0.16352-0.38477-0.29518-0.38477-0.71484 0-1.529 0.02539-14.102 0.02539-14.102a1.0001 1.0001 0 0 0 0-2e-3s-0.02812-1.282 1.1211-3.3359c0.61032-1.0908 1.0449-1.753 1.373-2.3867 0.32815-0.63367 0.5332-1.3028 0.5332-2.0586z" stop-color="#000000"/><path id="path3" d="m13.625 13.236a1 1 0 0 0-1 1 1 1 0 0 0 1 1h4.0938a1 1 0 0 0 1-1 1 1 0 0 0-1-1z" stop-color="#000000"/><path id="path4" d="m14.311 11.508a1 1 0 0 0-1 1 1 1 0 0 0 1 1h2.4883a1 1 0 0 0 1-1 1 1 0 0 0-1-1z" stop-color="#000000"/><path id="path5" d="m11.24 18.871a1 1 0 0 0-1 1.002 1 1 0 0 0 1 0.99805h8.709a1 1 0 0 0 1-1 1 1 0 0 0-1-1z" stop-color="#000000"/><path id="circle5" d="m15.623 20.459c-1.9229 0-3.502 1.581-3.502 3.5039 0 1.9229 1.579 3.5039 3.502 3.5039s3.5039-1.581 3.5039-3.5039c0-1.9229-1.581-3.5039-3.5039-3.5039zm0 2c0.84204 0 1.5039 0.66187 1.5039 1.5039s-0.66187 1.5039-1.5039 1.5039-1.502-0.66187-1.502-1.5039 0.65991-1.5039 1.502-1.5039z" stop-color="#000000"/><path id="path6" d="m21.439 11.668a1.0001 1.0001 0 0 0-1 1v1.0918l-1.1895 3.4531a1.0001 1.0001 0 0 0-0.05469 0.32812l0.04297 18.344a1.0001 1.0001 0 0 0 1 0.99805h7.4199a1.0001 1.0001 0 0 0 1-1v-18.34a1.0001 1.0001 0 0 0-0.05469-0.32617l-1.1895-3.457v-1.0918a1.0001 1.0001 0 0 0-1-1zm1 2h2.9746v0.25976a1.0001 1.0001 0 0 0 0.05469 0.32422l1.1895 3.459v17.172h-5.4219l-0.04102-17.178 1.1895-3.4531a1.0001 1.0001 0 0 0 0.05469-0.32422z" stop-color="#000000"/><path id="path7" d="m20.545 16.537a1 1 0 0 0-1 1 1 1 0 0 0 1 1h6.7461a1 1 0 0 0 1-1 1 1 0 0 0-1-1z" stop-color="#000000"/><path id="path8" d="m21.486 13.145a1 1 0 0 0-1 1 1 1 0 0 0 1 1h5.0039a1 1 0 0 0 1-1 1 1 0 0 0-1-1z" stop-color="#000000"/><path id="path9" d="m20.49 26.85a1 1 0 0 0-1 1 1 1 0 0 0 1 1h6.8359a1 1 0 0 0 1-1 1 1 0 0 0-1-1z" stop-color="#000000"/><path id="path10" d="m23.928 20.896c-0.67564 0-1.2916 0.24035-1.7207 0.60156-0.42914 0.36121-0.68075 0.80538-0.83984 1.2051-0.11234 0.28223-0.06224 0.30684-0.10742 0.54492h-0.74219a1 1 0 0 0-1 1 1 1 0 0 0 1 1h1.543a1.0001 1.0001 0 0 0 1-0.99609s0.01597-0.43163 0.16602-0.80859c0.07502-0.18848 0.17458-0.33414 0.26953-0.41406 0.09495-0.07992 0.17793-0.13281 0.43164-0.13281 0.25375 0 0.33669 0.05289 0.43164 0.13281 0.09495 0.07992 0.19452 0.22559 0.26953 0.41406 0.15003 0.37695 0.16406 0.80859 0.16406 0.80859a1.0001 1.0001 0 0 0 1 0.99609h1.5137a1 1 0 0 0 1-1 1 1 0 0 0-1-1h-0.71289c-0.04517-0.23808 0.0049-0.26269-0.10742-0.54492-0.15908-0.3997-0.41069-0.84386-0.83984-1.2051-0.42915-0.36121-1.0431-0.60156-1.7188-0.60156z" stop-color="#000000"/><path id="path11" d="m29.648 13.922a1.0001 1.0001 0 0 0-1 1v1.666c-0.19362 0.11074-0.2512 0.13138-0.51172 0.30273-0.26609 0.17503-0.5392 0.36855-0.78906 0.59766s-0.625 0.41568-0.625 1.1836c0 0.4154-0.06445 17.207-0.06445 17.207l0.05664-0.0039a1.0001 1.0001 0 0 0-0.04492 0.15625 1.0001 1.0001 0 0 0 1.0215 0.81445l-0.0332 0.03711h7.3496a1.0001 1.0001 0 0 0 0.02148-2e-3s0.63334 3.35e-4 1.3125-0.30078c0.67916-0.30112 1.5215-1.1261 1.5215-2.3047v-14.26l-0.04297 0.29102s0.13319-0.5163 0.02148-1.0781c-0.1117-0.56182-0.44251-1.2662-1.1367-1.9414l-0.83203-0.80664v-1.5586a1.0001 1.0001 0 0 0-1-1zm1 2h3.2246v0.98047a1.0001 1.0001 0 0 0 0.30273 0.7168l1.1348 1.1035c0.43922 0.4272 0.53502 0.72881 0.56836 0.89648 0.03334 0.16767 0.0293 0.10352 0.0293 0.10352a1.0001 1.0001 0 0 0-0.04492 0.29297v14.26c0 0.38894-0.08289 0.3661-0.33203 0.47656-0.24914 0.11046-0.54492 0.13086-0.54492 0.13086h-6.3242c0.0064-1.693 0.05678-14.938 0.05859-15.939 0.11447-0.10213 0.30693-0.24487 0.51367-0.38086 0.43142-0.28377 0.88281-0.52344 0.88281-0.52344a1.0001 1.0001 0 0 0 0.53125-0.88476z" stop-color="#000000"/><path id="path12" d="m29.943 16.115a1 1 0 0 0-1 1 1 1 0 0 0 1 1h4.752a1 1 0 0 0 1-1 1 1 0 0 0-1-1z" stop-color="#000000"/><path id="path13" d="m33.879 31.707a1.0001 1.0001 0 0 0-1 1v1.123a1.0001 1.0001 0 0 0 1 1h2.7246a1 1 0 0 0 1-1 1 1 0 0 0-0.56055-0.56055 1 1 0 0 0 0.56055-0.5625 1 1 0 0 0-1-1z" stop-color="#000000"/></g></svg>
