<?xml version="1.0" encoding="UTF-8"?>
<svg id="svg5" version="1.1" viewBox="0 0 48 48" xml:space="preserve" xmlns="http://www.w3.org/2000/svg"><defs id="defs1"><style id="style1">.b{fill:none;stroke:#000;stroke-linecap:round;stroke-linejoin:round;stroke-width:2px;}</style></defs><path id="path1" d="m7.5254 4.5078c-1.645 0-3 1.355-3 3v33c0 1.645 1.355 3 3 3h33c1.645 1e-6 3-1.355 3-3v-33c0-1.645-1.355-3-3-3zm0 2h33c0.56413 0 1 0.43587 1 1v33c0 0.56413-0.43587 1-1 1h-33c-0.56413 0-1-0.43587-1-1v-33c0-0.56413 0.43587-1 1-1z" stop-color="#000000" stroke-linecap="round" stroke-linejoin="round"/><path id="path2" d="m11.924 9.4375c-1.3508 0-2.4687 1.1179-2.4687 2.4688v24.209c0 1.3508 1.1179 2.4668 2.4687 2.4668h24.209c1.3508 0 2.4668-1.116 2.4668-2.4668v-24.209c0-1.3508-1.116-2.4688-2.4668-2.4688zm0 2h24.209c0.26993 0 0.4668 0.19882 0.4668 0.46875v24.209c0 0.26993-0.19687 0.4668-0.4668 0.4668h-24.209c-0.26993 0-0.46875-0.19687-0.46875-0.4668v-24.209c0-0.26993 0.19882-0.46875 0.46875-0.46875z" stop-color="#000000" stroke-linecap="round" stroke-linejoin="round"/><path id="path3" d="m13.971 32.648a1 1 0 0 0-1 1 1 1 0 0 0 1 1h9.5586a1 1 0 0 0 1-1 1 1 0 0 0-1-1z" stop-color="#000000" stroke-linecap="round" stroke-linejoin="round"/><path id="path4" d="m24.689 13.068c-1.6462 0-3.002 1.3557-3.002 3.002 0 1.6438 1.3542 2.998 2.998 2.998h1.3066c0.56175 0 0.99609 0.43238 0.99609 0.99414v0.0098c0 0.56176-0.43433 0.99609-0.99609 0.99609h-1.1855c-0.67049 0-0.85034-0.07281-1.168-0.48633a1 1 0 0 0-1.4023-0.18359 1 1 0 0 0-0.18359 1.4023c0.66349 0.8638 1.7128 1.2676 2.7539 1.2676h1.1855c1.6426 0 2.9961-1.3535 2.9961-2.9961v-0.0098c0-1.6426-1.3535-2.9941-2.9961-2.9941h-1.3066c-0.56297 0-0.99805-0.43514-0.99805-0.99805 0-0.56538 0.43656-1.002 1.002-1.002h1.1777c0.6705 0 0.85043 0.07093 1.168 0.48438a1 1 0 0 0 1.4023 0.18359 1 1 0 0 0 0.18555-1.4004c-0.66346-0.86385-1.7147-1.2676-2.7559-1.2676z" stop-color="#000000" stroke-linecap="round" stroke-linejoin="round"/><path id="path5" d="m13.684 13.068a1.0001 1.0001 0 0 0-1 1v8a1.0001 1.0001 0 0 0 1 1h1.8008c2.4734 0 4.5-2.0266 4.5-4.5v-1c0-2.4734-2.0266-4.5-4.5-4.5zm1 2h0.80078c1.3926 0 2.5 1.1074 2.5 2.5v1c0 1.3926-1.1074 2.5-2.5 2.5h-0.80078z" stop-color="#000000" stroke-linecap="round" stroke-linejoin="round"/></svg>
