<?xml version="1.0" encoding="UTF-8"?>
<svg id="a" version="1.1" viewBox="0 0 48 48" xmlns="http://www.w3.org/2000/svg">
 <defs id="defs1">
  <style id="style1">.b{fill:none;stroke:#000;stroke-width:2px;stroke-linecap:round;stroke-linejoin:round;}</style>
 </defs>
 <path id="path1" d="m10.299 21.941a1 1 0 0 0-0.60742 0.4668 1 1 0 0 0 0.36719 1.3652l11.086 6.4023-11.086 6.4043a1 1 0 0 0-0.36719 1.3652 1 1 0 0 0 1.3672 0.36719l12.586-7.2695a1.0001 1.0001 0 0 0 0-1.7324l-12.586-7.2676a1 1 0 0 0-0.75977-0.10156zm14.145 14.504a1 1 0 0 0-1 1 1 1 0 0 0 1 1h13.443a1 1 0 0 0 1-1 1 1 0 0 0-1-1z" stop-color="#000000" stroke-linecap="round" stroke-linejoin="round"/>
 <path id="path2" d="m9.5 4.5c-2.7496 0-5 2.2504-5 5v29c0 2.7496 2.2504 5 5 5h29c2.7496 0 5-2.2504 5-5v-29c0-2.7496-2.2504-5-5-5zm0 2h29c1.6686 0 3 1.3314 3 3v29c0 1.6686-1.3314 3-3 3h-29c-1.6686 0-3-1.3314-3-3v-29c0-1.6686 1.3314-3 3-3z" stop-color="#000000" stroke-linecap="round" stroke-linejoin="round"/>
 <g id="g3" class="b" transform="translate(-2.1308)">
  <path id="path3" d="m33.16 7.1855c-2.3834 0-4.023 1.0722-4.9629 2.1348-0.93992 1.0626-1.2754 2.1738-1.2754 2.1738a1.0001 1.0001 0 0 0-0.04102 0.28711v7.2383s-0.03402 0.57947 0.22656 1.2129c0.26059 0.63342 1.0535 1.4199 2.1387 1.4199 0.88878 0 1.5405-0.36308 1.9844-0.73438 0.43975 0.27588 0.95885 0.56445 1.6934 0.56445 0.77367 0 1.3566-0.28286 1.832-0.55859 0.41666 0.32896 0.96808 0.58398 1.7031 0.58398 0.90063 0 1.7332-0.27154 2.1855-0.91211s0.43945-1.2968 0.43945-1.8867v-6.6113a1.0001 1.0001 0 0 0-0.01563-0.18359s-0.21795-1.1889-1.0625-2.3574c-0.84454-1.1685-2.4372-2.3711-4.8457-2.3711zm0 2c1.7866 0 2.6551 0.75304 3.2246 1.541 0.55528 0.76826 0.69185 1.4787 0.69922 1.5156v6.4668c0 0.50376-0.08268 0.74716-0.07227 0.73242 0.01041-0.01474 0.03144 0.06641-0.55274 0.06641-0.52959 0-0.51084-0.1053-0.49023-0.07813 0.02061 0.02718 0.0293 0.1543 0.0293 0.1543a1.0001 1.0001 0 0 0-1.7461-0.69141s-0.57193 0.58984-1.3281 0.58984c-0.78213 0-1.0098-0.43359-1.0098-0.43359a1.0001 1.0001 0 0 0-1.7559 0.18359s-0.01036 0.04372-0.14062 0.16406c-0.13026 0.12034-0.31079 0.25586-0.77148 0.25586-0.32891 0-0.21971-0.01306-0.28906-0.18164-0.06935-0.16858-0.07813-0.39258-0.07813-0.39258a1.0001 1.0001 0 0 0 2e-3 -0.0293v-7.0508c0.02047-0.06458 0.19648-0.65293 0.81445-1.3516 0.6509-0.73585 1.6531-1.4609 3.4648-1.4609z" stop-color="#000000"/>
  <path id="polyline3" transform="matrix(.43457 0 0 .28629 -90.43 -9.1512)" d="m277.04 74.395a1 1 0 0 0-0.58984 0.48633 1 1 0 0 0 0.41406 1.3535l3.334 1.7656-3.334 1.7656a1 1 0 0 0-0.41406 1.3535 1 1 0 0 0 1.3516 0.41406l5-2.6504a1.0001 1.0001 0 0 0 0-1.7656l-5-2.6504a1 1 0 0 0-0.76172-0.07227z" stop-color="#000000"/>
  <path id="line3" d="m34.066 12.172a1 1 0 0 0-1 1 1 1 0 0 0 1 1h1.6465a1 1 0 0 0 1-1 1 1 0 0 0-1-1z" stop-color="#000000"/>
 </g>
</svg>
