<?xml version="1.0" encoding="UTF-8"?>
<svg id="a" version="1.1" viewBox="0 0 48 48" xml:space="preserve" xmlns="http://www.w3.org/2000/svg"><defs id="defs1"><style id="style1">.b{fill:none;stroke:#000;stroke-width:2px;stroke-linecap:round;stroke-linejoin:round;}</style></defs><g id="g2" class="b"><path id="polygon1" transform="matrix(1.7605 .88712 0 1.5376 -34.405 -50.469)" d="m41.744 12.666-18.244 10.533a1.0001 1.0001 0 0 0-0.5 0.86719v20.934a1.0001 1.0001 0 0 0 1.5 0.86523l18.244-10.531a1.0001 1.0001 0 0 0 0.5-0.86719v-20.934a1.0001 1.0001 0 0 0-1.5-0.86719zm-0.5 2.5977v18.625l-16.244 9.3809v-18.627z" stop-color="#000000"/><path id="polygon2" transform="matrix(1.7295 .65594 0 1.1369 -33.318 -35.166)" d="m41.744 12.666-2.2812 1.3184-2.2793 1.3164-2.2812 1.3164-2.2793 1.3164a1.0001 1.0001 0 0 0-2e-3 0l-2.2792 1.3164-4.5625 2.6328-2.2793 1.3164a1.0001 1.0001 0 0 0-0.5 0.86719v7.8496a1.0001 1.0001 0 0 0 1.5 0.86523l0.7793-0.44922v0.88477a1.0001 1.0001 0 0 0 1.5 0.86523l2.2812-1.3164a1.0001 1.0001 0 0 0 0.5-0.86523v-4.6562l1.7812-1.0273a1.0001 1.0001 0 0 0 0.5-0.86719v-2.0391l0.2793-0.16211v3.502a1.0001 1.0001 0 0 0 1.502 0.86523l2.2793-1.3164a1.0001 1.0001 0 0 0 0.5-0.86719v-2.0391l0.28125-0.16211v0.88477a1.0001 1.0001 0 0 0 1.5 0.86719l2.2793-1.3164a1.0001 1.0001 0 0 0 0.5-0.86719v-2.0391l1.7812-1.0273a1.0001 1.0001 0 0 0 0.5-0.86719v-5.2324a1.0001 1.0001 0 0 0-1.5-0.86719zm-0.5 2.5996v2.9238l-1.7812 1.0273a1.0001 1.0001 0 0 0-0.5 0.86523v2.041l-0.2793 0.16211v-0.88476a1.0001 1.0001 0 0 0-1.5-0.86719l-2.2812 1.3164a1.0001 1.0001 0 0 0-0.5 0.86719v2.0391l-0.28125 0.16211v-3.502a1.0001 1.0001 0 0 0-1.5-0.86524l-2.2793 1.3164a1.0001 1.0001 0 0 0-0.5 0.86524v2.041l-1.7812 1.0273a1.0001 1.0001 0 0 0-0.5 0.86524v4.6562l-0.28125 0.16211v-0.88477a1.0001 1.0001 0 0 0-1.5-0.86523l-0.7793 0.44922v-5.541l1.7793-1.0273 4.5625-2.6328 2.2793-1.3164 2.2812-1.3164 2.2812-1.3184 2.2793-1.3145z" stop-color="#000000"/><path id="path2" d="m29.986 22.717c-1.8958 0.16757-3.2431 1.5312-4.6055 2.4082v-2e-3c-0.33304 0.21364-0.62938 0.42387-1.1055 0.76758-1.8695-1.4308-3.2255-2.8528-5.1797-3.1152-1.1492-0.1543-2.3276-0.05895-3.4199 0.2793-1.8319 0.56813-3.2988 1.7835-3.7422 3.4316-1.66e-4 6.11e-4 1.65e-4 0.0013 0 2e-3 -0.08604 0.31779-0.12695 0.64051-0.12695 1 0 0.63875 0.14026 1.2572 0.41602 1.8281 0.79799 1.6585 2.5897 2.6603 4.6699 2.8867 1.3072 0.14299 2.6982-0.03352 3.959-0.49219a1.0001 1.0001 0 0 0 0.11328-0.04883c0.96189-0.49209 1.2784-0.75021 1.6914-1.1016 0.92438-0.76947 1.0914-0.92032 1.7129-1.5117 0.35652 0.25663 0.75366 0.54464 1.0117 0.71289a1.0001 1.0001 0 0 0 0 2e-3c1.3439 0.87451 2.523 2.2589 4.4355 2.4512 0.22682 0.02293 0.4365 0.02148 0.72852 0.02148 0.38998 0 0.58675-0.0095 0.82812-0.03711 1.3075-0.14682 2.4818-0.56735 3.4512-1.2734a1.0001 1.0001 0 0 0 2e-3 -2e-3c0.98923-0.7221 1.6777-1.7235 1.8711-2.8633a1.0001 1.0001 0 0 0 0-2e-3c0.08436-0.50238 0.08095-0.79128-0.01563-1.2949h2e-3c-0.17702-0.92889-0.63083-1.7783-1.3048-2.4335-0.28855-0.2832-0.61215-0.52052-0.96094-0.7207-0.80769-0.46855-1.7797-0.75113-2.8555-0.87305a1.0001 1.0001 0 0 0-2e-3 0c-0.4634-0.05115-1.0995-0.0616-1.5742-0.01953zm0.17578 1.9922a1.0001 1.0001 0 0 0 2e-3 0c0.14544-0.01289 1.0225-0.0013 1.1758 0.01563l-2e-3 -2e-3c0.86164 0.09765 1.5838 0.32855 2.0801 0.61719a1.0001 1.0001 0 0 0 0.0039 0.0039c0.11963 0.06866 0.50732 0.36363 0.55859 0.41406a1.0001 1.0001 0 0 0 0.0039 0.0039c0.37584 0.36515 0.63178 0.83832 0.73438 1.377a1.0001 1.0001 0 0 0 0 2e-3c-0.01779-0.09279-0.01038 0.68462 0.0059 0.58789-0.09734 0.57132-0.42948 1.1066-1.0781 1.5801-0.65823 0.47945-1.4732 0.78747-2.4961 0.90234a1.0001 1.0001 0 0 0-2e-3 2e-3c-0.19165 0.02199-0.23077 0.02344-0.60352 0.02344-0.26727 0-0.54623-0.01363-0.52734-0.01172-0.89825-0.09031-1.949-1.1001-3.5449-2.1387v2e-3c-0.18883-0.12311-0.58182-0.40639-0.91992-0.64844 0.3643-0.26159 0.63368-0.45672 0.9082-0.63281a1.0001 1.0001 0 0 0 2e-3 0c1.552-0.99909 2.8282-2.0211 3.6992-2.0977zm-11.332 0.04883c1.0087 0.13547 2.2868 1.2615 4.2637 2.752-0.01108 0.0104-0.01382 0.01263-0.02539 0.02344a1.0001 1.0001 0 0 0-0.0078 0.0059c-0.684 0.65183-0.72334 0.68505-1.6836 1.4844a1.0001 1.0001 0 0 0-0.0078 0.0078c-0.41334 0.35175-0.47559 0.4084-1.248 0.80664-0.95224 0.33824-2.0588 0.48098-3.0098 0.37695a1.0001 1.0001 0 0 0-2e-3 0c-1.5719-0.17108-2.6715-0.90288-3.0859-1.7656a1.0001 1.0001 0 0 0 0-2e-3c-0.16165-0.33466-0.2168-0.57186-0.2168-0.95898 0-0.28622-4e-3 -0.25518 0.05664-0.47852a1.0001 1.0001 0 0 0 2e-3 -2e-3c0.20705-0.77312 1.063-1.6276 2.4023-2.043 0.80071-0.24795 1.7041-0.32229 2.5625-0.20703z" stop-color="#000000"/></g></svg>
