<?xml version="1.0" encoding="UTF-8"?>
<svg id="svg3" version="1.1" viewBox="0 0 48 48" xml:space="preserve" xmlns="http://www.w3.org/2000/svg"><defs id="defs1"><style id="style1">.b{fill:none;stroke:#000;stroke-linecap:round;stroke-linejoin:round;stroke-width:2px;}</style></defs><path id="path1" d="m7.5254 4.5078c-1.645 0-3 1.355-3 3v33c0 1.645 1.355 3 3 3h33c1.645 1e-6 3-1.355 3-3v-33c0-1.645-1.355-3-3-3zm0 2h33c0.56413 0 1 0.43587 1 1v33c0 0.56413-0.43587 1-1 1h-33c-0.56413 0-1-0.43587-1-1v-33c0-0.56413 0.43587-1 1-1z" stop-color="#000000" stroke-linecap="round" stroke-linejoin="round"/><g id="g3" class="b"><path id="path2" d="m16.506 10.119a1.0001 1.0001 0 0 0-0.03906 2e-3s-0.85657 0.04343-1.7363 0.53906c-0.87976 0.49559-1.8419 1.5682-1.9805 3.2304-0.23495 2.819-1.1289 19.184-1.1289 19.184a1.0001 1.0001 0 0 0 0.04297 0.11523l-0.04297-0.04102s0.01058 1.1883 0.60547 2.4238c0.59489 1.2356 1.9553 2.5983 4.1855 2.6875 4.8061 0.19224 15.51 1e-3 15.566 0 0 0 1.1694 0.02631 2.2793-0.73828 1.1099-0.76459 2.123-2.3559 2.123-4.9941 0-5.8364-1.0547-18.637-1.0547-18.637a1.0001 1.0001 0 0 0-0.0059-0.05469s-0.12871-0.92733-0.7832-1.8242c-0.65449-0.89689-1.9189-1.8052-3.8418-1.8926-4.3047-0.19566-14.189 0-14.189 0zm14.098 1.998c1.3825 0.06282 1.9587 0.58136 2.3184 1.0742 0.35718 0.48947 0.41325 0.90826 0.41406 0.91406 0.0057 0.07041 1.0449 12.846 1.0449 18.422 0 2.1695-0.67549 2.9459-1.2559 3.3457s-1.1016 0.38867-1.1016 0.38867a1.0001 1.0001 0 0 0-0.03906 0s-10.85 0.18575-15.494 0c-1.5258-0.06101-2.0812-0.7639-2.4629-1.5566-0.3784-0.7859-0.40382-1.5684-0.4043-1.582 0.0057-0.1041 0.90398-16.485 1.1191-19.066 0.08686-1.0421 0.5151-1.3987 0.96875-1.6543 0.45059-0.25386 0.8616-0.28279 0.86719-0.2832 0.04683-8.8e-4 9.9334-0.18795 14.025-2e-3z" stop-color="#000000"/><path id="rect2" d="m17.5 24.389a1.0001 1.0001 0 0 0-1 1v5.3867a1.0001 1.0001 0 0 0 1 1h5.3867a1.0001 1.0001 0 0 0 1-1v-5.3867a1.0001 1.0001 0 0 0-1-1zm1 2h3.3867v3.3867h-3.3867z" stop-color="#000000"/><path id="circle2" d="m27.262 20.432c-1.9698 0-3.5879 1.6181-3.5879 3.5879s1.6181 3.5879 3.5879 3.5879 3.5879-1.6181 3.5879-3.5879-1.6181-3.5879-3.5879-3.5879zm0 2c0.88887 0 1.5879 0.69902 1.5879 1.5879s-0.69902 1.5879-1.5879 1.5879-1.5879-0.69902-1.5879-1.5879 0.69902-1.5879 1.5879-1.5879z" stop-color="#000000"/><path id="path3" d="m29.119 28.43-4.6816 2.7031a1.0001 1.0001 0 0 0 0.01758 1.7422l4.6816 2.584a1.0001 1.0001 0 0 0 1.4824-0.875v-5.2871a1.0001 1.0001 0 0 0-1.5-0.86719zm-0.5 2.5977v1.8613l-1.6465-0.91016z" stop-color="#000000"/></g></svg>
