<?xml version="1.0" encoding="UTF-8"?>
<svg id="svg1" version="1.1" viewBox="0 0 48 48" xmlns="http://www.w3.org/2000/svg">
 <defs id="defs1">
  <style id="style1">.c{fill:none;stroke:#fff;stroke-width:2px;stroke-linecap:round;stroke-linejoin:round;}</style>
 </defs>
 <g id="a" fill="#fff" stroke-linecap="round" stroke-linejoin="round">
  <path id="path1" d="m10.5 3.5c-1.645 0-3 1.355-3 3v35c0 1.645 1.355 3 3 3h27c1.645 0 3-1.355 3-3v-26a1.0001 1.0001 0 0 0-1-1h-9c-0.56419 0-1-0.43581-1-1v-9a1.0001 1.0001 0 0 0-1-1zm0 2h17v8c0 1.645 1.355 3 3 3h8v25c0 0.56419-0.43581 1-1 1h-27c-0.56419 0-1-0.43581-1-1v-35c0-0.56419 0.43581-1 1-1z" stop-color="#000000"/>
  <path id="line1" d="m27.793 3.793a1 1 0 0 0 0 1.4141l11 11a1 1 0 0 0 1.4141 0 1 1 0 0 0 0-1.4141l-11-11a1 1 0 0 0-1.4141 0z" stop-color="#000000"/>
 </g>
 <g id="b">
  <path id="polyline1" d="m16.094 19.291a1.0001 1.0001 0 0 0-1 1v3a1 1 0 0 0 1 1 1 1 0 0 0 1-1v-2h12.799l-5.7812 7.6035a1.0001 1.0001 0 0 0 0 1.2109l5.7812 7.6035h-12.799v-2a1 1 0 0 0-1-1 1 1 0 0 0-1 1v3a1.0001 1.0001 0 0 0 1 1h15.812a1.0001 1.0001 0 0 0 0.79688-1.6055l-6.541-8.6035 6.541-8.6035a1.0001 1.0001 0 0 0-0.79688-1.6055z" fill="#fff" stop-color="#000000" stroke-linecap="round" stroke-linejoin="round"/>
 </g>
</svg>
