<?xml version='1.0' encoding='UTF-8'?>
<svg xmlns="http://www.w3.org/2000/svg" version="1.1" viewBox="0 0 48 48" xml:space="preserve"><defs><style>.b{fill:none;stroke:#000;stroke-linecap:round;stroke-linejoin:round;stroke-width:2px;}</style></defs><path class="b" d="m40.525 5.5079h-33a2 2 0 0 0-2 2v33a2 2 0 0 0 2 2h33a2 2 0 0 0 2-2v-33a2 2 0 0 0-2-2z"/><g class="b"><path d="m10.969 19.867s0-1.5936 1.2483-3.8246c1.2483-2.231 1.7795-2.7356 1.7795-3.9574v-1.1952h3.134v1.0889c0 1.2771 0.58443 1.7566 1.8857 4.0105 0.48374 0.83787 1.2217 2.2445 1.2217 3.8511v16.042h-7.6757s-1.6201-0.37184-1.6201-1.9123 0.02656-14.103 0.02656-14.103z"/><path d="m17.719 14.236h-4.0941"/><path d="m14.311 12.508h2.4884"/><path d="m11.24 19.872 8.7095-7.87e-4"/><circle cx="15.624" cy="23.963" r="2.5032"/><path d="m20.238 35.882h7.4201v-18.339l-1.2439-3.6159v-1.2585h-4.9756v1.2585l-1.2439 3.6112z"/><path d="m20.544 17.537h6.7461"/><path d="m21.487 14.144h5.0029"/><path d="m20.49 27.849h6.8361"/><path d="m20.518 24.249h1.5433s0.0071-2.3527 1.8658-2.3527c1.8588 0 1.8658 2.3527 1.8658 2.3527h1.5141"/><path d="m27.659 35.882h7.3483s1.8566-0.0394 1.8566-1.6069v-14.26s0.27663-0.90779-0.8568-2.0102l-1.1334-1.1024v-1.9805h-5.2244v2.2332s-1.9272 1.0179-1.9272 1.5174-0.06301 17.21-0.06301 17.21z"/><path d="m29.944 17.115h4.7509"/><path d="m36.604 32.708h-2.7258v1.1215h2.7258"/></g></svg>