<?xml version='1.0' encoding='UTF-8'?>
<svg xmlns="http://www.w3.org/2000/svg" version="1.1" viewBox="0 0 48 48" xml:space="preserve"><defs><style>.b{fill:none;stroke:#000;stroke-linecap:round;stroke-linejoin:round;stroke-width:2px;}</style></defs><path class="b" d="m40.525 5.5079h-33a2 2 0 0 0-2 2v33a2 2 0 0 0 2 2h33a2 2 0 0 0 2-2v-33a2 2 0 0 0-2-2z"/><path class="b" d="m24.728 21.175c0.49056 0.63866 1.1057 0.87654 1.9615 0.87654l1.1844-1e-6c1.1022 0 1.9957-0.8935 1.9957-1.9957v-0.0086c0-1.1022-0.89351-1.9957-1.9957-1.9957h-1.3065c-1.1034 0-1.9978-0.89447-1.9978-1.9978v-4e-6c0-1.1058 0.89639-2.0022 2.0022-2.0022h1.1779c0.85581 0 1.471 0.23789 1.9615 0.87654"/><polyline class="b" transform="translate(-292.79 -26.596)" points="313.83 40.65 311.83 48.65 309.83 40.65 307.83 48.65 305.83 40.65"/><path class="b" d="m36.133 10.438h-24.21a1.4673 1.4673 0 0 0-1.4673 1.4673v24.21a1.4673 1.4673 0 0 0 1.4673 1.4673h24.21a1.4673 1.4673 0 0 0 1.4673-1.4673v-24.21a1.4673 1.4673 0 0 0-1.4673-1.4673z"/><path class="b" d="m13.97 33.648h9.5598"/></svg>