<?xml version='1.0' encoding='UTF-8'?>
<svg xmlns="http://www.w3.org/2000/svg" id="a" version="1.1" viewBox="0 0 48 48" xml:space="preserve"><defs><style>.b{fill:none;stroke:#000;stroke-width:2px;stroke-linecap:round;stroke-linejoin:round;}</style></defs><g class="b"><polygon transform="matrix(1.7605 .88712 0 1.5376 -34.405 -50.469)" points="42.244 13.533 42.244 34.467 24 45 24 24.066"/><polygon transform="matrix(1.7295 .65594 0 1.1369 -33.318 -35.166)" points="39.963 14.85 37.683 16.166 35.402 17.483 33.122 18.799 30.841 20.116 28.561 21.432 26.28 22.749 24 24.066 24 31.916 26.28 30.6 26.28 33.216 28.561 31.9 28.561 26.666 30.841 25.35 30.841 22.733 33.122 21.416 33.122 26.65 35.402 25.333 35.402 22.716 37.683 21.4 37.683 24.016 39.963 22.7 39.963 20.083 42.244 18.766 42.244 13.533"/><path d="m30.075 23.713c-1.3839 0.1217-2.696 1.3142-4.1534 2.2524-0.35493 0.22768-0.59872 0.39648-1.1777 0.81651-0.41229 0.29965-0.47324 0.3376-0.50371 0.32582-0.01971-0.0078-0.17926-0.12169-0.35672-0.25385-2.0507-1.5323-3.3808-2.8805-4.9206-3.0873-1.0038-0.13478-2.0453-0.04972-2.9918 0.24338-1.5864 0.492-2.748 1.527-3.0725 2.7387-0.07349 0.27086-0.09142 0.41611-0.09142 0.73931 0 0.51294 0.0968 0.94082 0.3155 1.3936 0.60589 1.2614 2.0525 2.129 3.8791 2.3278 1.1365 0.12432 2.3967-0.03403 3.5081-0.43835 0.9356-0.47864 1.0812-0.6162 1.5071-0.97864 0.96135-0.80024 1.0467-0.87478 1.7332-1.529 0.36237-0.33836 0.50804-0.50204 0.5206-0.50204 0.01439 0 0.13803 0.08637 0.27606 0.19104 0.30832 0.23422 1.0612 0.76417 1.3803 0.97222 1.4699 0.95652 2.5849 2.154 3.9903 2.2953 0.10397 0.01051 0.34776 0.0157 0.6274 0.0157 0.38182 0 0.50013-0.0052 0.71703-0.03009 1.1652-0.13085 2.1601-0.49593 2.9739-1.0887 0.81921-0.59799 1.3301-1.3674 1.4753-2.2232 0.03406-0.20282 0.0287-0.7367-0.01069-0.94213-0.13982-0.73408-0.49296-1.3962-1.0182-1.9065-0.1703-0.16749-0.52702-0.43443-0.76185-0.56921-0.6525-0.37947-1.5004-0.63594-2.4702-0.74585-0.30832-0.03403-1.0648-0.04449-1.3749-0.01701z"/></g></svg>