<?xml version='1.0' encoding='UTF-8'?>
<svg xmlns="http://www.w3.org/2000/svg" version="1.1" viewBox="0 0 48 48" xml:space="preserve"><defs><style>.b{fill:none;stroke:#000;stroke-linecap:round;stroke-linejoin:round;stroke-width:2px;}</style></defs><path class="b" d="m40.525 5.5079h-33a2 2 0 0 0-2 2v33a2 2 0 0 0 2 2h33a2 2 0 0 0 2-2v-33a2 2 0 0 0-2-2z"/><g class="b"><path d="m12.62 33.129s0.07512 3.9815 3.8312 4.1317c4.7313 0.18925 15.55 0 15.55 0s3.3805 0.07512 3.3805-4.7327c0-5.7137-1.0517-18.555-1.0517-18.555s-0.37561-2.7044-3.681-2.8546c-4.2032-0.19105-14.123 0-14.123 0s-2.5541 0.15024-2.7795 2.8546-1.1268 19.156-1.1268 19.156z"/><rect x="17.5" y="25.389" width="5.3863" height="5.3863"/><circle cx="27.262" cy="24.02" r="2.588"/><path d="m24.938 31.999 4.6819-2.7031v5.2877z"/></g></svg>