<?xml version='1.0' encoding='UTF-8'?>
<svg xmlns="http://www.w3.org/2000/svg" xmlns:xlink="http://www.w3.org/1999/xlink" id="a" version="1.1" viewBox="0 0 48 48" xml:space="preserve"><defs><style>.b{fill:none;stroke:#000;stroke-width:2px;stroke-linecap:round;stroke-linejoin:round;}</style></defs><path class="b" d="m38.5 5.5h-29c-2.2091 0-4 1.7909-4 4v29c0 2.2091 1.7909 4 4 4h29c2.2091 0 4-1.7909 4-4v-29c0-2.2091-1.7909-4-4-4z"/><path class="b" d="m21.768 32.078s1.4065 4.3294 3.6479 1.3085l0.91197-1.2292"/><ellipse class="b" id="ellipse4" transform="matrix(.98692 .16124 -.24634 .96918 0 0)" cx="20.876" cy="15.551" rx="2.6419" ry="1.2825"/><use transform="matrix(-1 0 0 1 48.136 -.19825)" xlink:href="#ellipse4"/><ellipse class="b" id="path4" transform="matrix(.9912 -.1324 0 1 0 0)" cx="16.521" cy="28.833" rx="5.9745" ry="5.2077"/><use transform="matrix(-1 0 0 1 47.74 0)" xlink:href="#path4"/></svg>