<?xml version="1.0" encoding="UTF-8"?>
<svg id="svg4" version="1.1" viewBox="0 0 48 48" xml:space="preserve" xmlns="http://www.w3.org/2000/svg"><defs id="defs1"><style id="style1">.b{fill:none;stroke:#fff;stroke-linecap:round;stroke-linejoin:round;stroke-width:2px;}</style></defs><path id="path1" d="m7.5 4.5c-1.645 0-3 1.355-3 3v33c0 1.645 1.355 3 3 3h33c1.645 0 3-1.355 3-3v-33c0-1.645-1.355-3-3-3zm0 2h33c0.56413 0 1 0.43587 1 1v33c0 0.56413-0.43587 1-1 1h-33c-0.56413 0-1-0.43587-1-1v-33c0-0.56413 0.43587-1 1-1z" fill="#fff" stop-color="#000000" stroke-linecap="round" stroke-linejoin="round"/><path id="rect1" d="m25.762 12.992c-2.0048 0-3.6504 1.6456-3.6504 3.6504v2.6992c0 2.0048 1.6456 3.6504 3.6504 3.6504s3.6504-1.6456 3.6504-3.6504v-2.6992c0-2.0048-1.6456-3.6504-3.6504-3.6504zm0 2c0.9314 0 1.6504 0.71899 1.6504 1.6504v2.6992c0 0.9314-0.71899 1.6504-1.6504 1.6504-0.9314 0-1.6504-0.71899-1.6504-1.6504v-2.6992c0-0.9314 0.71899-1.6504 1.6504-1.6504z" fill="#fff" stop-color="#000000" stroke-linecap="round" stroke-linejoin="round"/><path id="path2" d="m16.486 12.971c-2.004 0-3.6484 1.6444-3.6484 3.6484v2.7012c0 2.004 1.6444 3.6504 3.6484 3.6504s3.6504-1.6464 3.6504-3.6504a1.0001 1.0001 0 0 0-1-1h-2.6504a1 1 0 0 0-1 1 1 1 0 0 0 1 1h1.2422c-0.30025 0.37718-0.71343 0.65039-1.2422 0.65039-0.9232 0-1.6484-0.7272-1.6484-1.6504v-2.7012c0-0.9232 0.72524-1.6484 1.6484-1.6484s1.6504 0.72524 1.6504 1.6484a1 1 0 0 0 1 1 1 1 0 0 0 1-1c0-2.004-1.6464-3.6484-3.6504-3.6484z" fill="#fff" stop-color="#000000" stroke-linecap="round" stroke-linejoin="round"/><path id="path3" d="m11.898 9.4297c-1.3508 0-2.4668 1.116-2.4668 2.4668v24.211c0 1.3508 1.116 2.4668 2.4668 2.4668h24.209c1.3508 0 2.4688-1.116 2.4688-2.4668v-24.211c0-1.3508-1.1179-2.4668-2.4688-2.4668zm0 2h24.209c0.26993 0 0.46875 0.19687 0.46875 0.4668v24.211c0 0.26993-0.19882 0.4668-0.46875 0.4668h-24.209c-0.26993 0-0.4668-0.19687-0.4668-0.4668v-24.211c0-0.26993 0.19687-0.4668 0.4668-0.4668z" fill="#fff" stop-color="#000000" stroke-linecap="round" stroke-linejoin="round"/><path id="path4" d="m13.945 32.641a1 1 0 0 0-1 1 1 1 0 0 0 1 1h9.5586a1 1 0 0 0 1-1 1 1 0 0 0-1-1z" fill="#fff" stop-color="#000000" stroke-linecap="round" stroke-linejoin="round"/></svg>
