<?xml version="1.0" encoding="UTF-8"?>
<svg id="svg5" version="1.1" viewBox="0 0 48 48" xml:space="preserve" xmlns="http://www.w3.org/2000/svg"><defs id="defs1"><style id="style1">.b{fill:none;stroke:#fff;stroke-linecap:round;stroke-linejoin:round;stroke-width:2px;}</style></defs><path id="path1" d="m7.5254 4.5078c-1.645 0-3 1.355-3 3v33c0 1.645 1.355 3 3 3h33c1.645 1e-6 3-1.355 3-3v-33c0-1.645-1.355-3-3-3zm0 2h33c0.56413 0 1 0.43587 1 1v33c0 0.56413-0.43587 1-1 1h-33c-0.56413 0-1-0.43587-1-1v-33c0-0.56413 0.43587-1 1-1z" fill="#fff" stop-color="#000000" stroke-linecap="round" stroke-linejoin="round"/><path id="path2" d="m23.607 6.2773-14.547 8.3594a1.0001 1.0001 0 0 0-0.00195 1.7324l14.049 8.1113v16.23a1.0001 1.0001 0 0 0 1.5 0.86719l14.514-8.3789a1.0001 1.0001 0 0 0 0.5-0.86719v-16.807a1.0001 1.0001 0 0 0-0.5-0.86719l-14.516-8.3789a1.0001 1.0001 0 0 0-0.99805-0.00195zm0.49805 2.0215 13.516 7.8027v15.654l-12.514 7.2246v-15.076a1.0001 1.0001 0 0 0-0.5-0.86719l-13.045-7.5332z" fill="#fff" stop-color="#000000" stroke-linecap="round" stroke-linejoin="round"/><path id="path3" d="m9.5273 14.539a1 1 0 0 0-1 1v16.848a1 1 0 0 0 1 1 1 1 0 0 0 1-1v-16.848a1 1 0 0 0-1-1z" fill="#fff" stop-color="#000000" stroke-linecap="round" stroke-linejoin="round"/><path id="path4" d="m23.084 23.295-14.051 8.2305a1 1 0 0 0-0.35742 1.3672 1 1 0 0 0 1.3691 0.35742l14.051-8.2285a1 1 0 0 0 0.35742-1.3691 1 1 0 0 0-1.3691-0.35742z" fill="#fff" stop-color="#000000" stroke-linecap="round" stroke-linejoin="round"/><path id="path5" d="m38.09 14.699-14.477 8.3574a1 1 0 0 0-0.36523 1.3672 1 1 0 0 0 1.3652 0.36523l14.477-8.3574a1 1 0 0 0 0.36523-1.3652 1 1 0 0 0-1.3652-0.36719z" fill="#fff" stop-color="#000000" stroke-linecap="round" stroke-linejoin="round"/></svg>
