<?xml version="1.0" encoding="UTF-8"?>
<svg id="svg19" version="1.1" viewBox="0 0 48 48" xml:space="preserve" xmlns="http://www.w3.org/2000/svg"><defs id="defs1"><style id="style1">.b{fill:none;stroke:#fff;stroke-linecap:round;stroke-linejoin:round;stroke-width:2px;}</style></defs><path id="path1" d="m7.5254 4.5078c-1.645 0-3 1.355-3 3v33c0 1.645 1.355 3 3 3h33c1.645 1e-6 3-1.355 3-3v-33c0-1.645-1.355-3-3-3zm0 2h33c0.56413 0 1 0.43587 1 1v33c0 0.56413-0.43587 1-1 1h-33c-0.56413 0-1-0.43587-1-1v-33c0-0.56413 0.43587-1 1-1z" fill="#fff" stop-color="#000000" stroke-linecap="round" stroke-linejoin="round"/><g id="g19" class="b" fill="#fff"><path id="circle1" d="m36.434 7.5879c-2.3811 0-4.334 1.9529-4.334 4.334 0 2.3811 1.9529 4.332 4.334 4.332 2.3811 0 4.332-1.9509 4.332-4.332 0-2.3811-1.9509-4.334-4.332-4.334zm0 2c1.3002 0 2.332 1.0338 2.332 2.334s-1.0318 2.332-2.332 2.332c-1.3002 0-2.334-1.0318-2.334-2.332s1.0338-2.334 2.334-2.334z" stop-color="#000000"/><path id="circle2" d="m36.434 32.029c-2.3811 0-4.334 1.9509-4.334 4.332s1.9529 4.334 4.334 4.334c2.3811 0 4.332-1.9529 4.332-4.334s-1.9509-4.332-4.332-4.332zm0 2c1.3002 0 2.332 1.0318 2.332 2.332 0 1.3002-1.0318 2.334-2.332 2.334-1.3002 0-2.334-1.0338-2.334-2.334 0-1.3002 1.0338-2.332 2.334-2.332z" stop-color="#000000"/><path id="circle3" d="m29.768 26.475c-1.7676 0-3.2207 1.4531-3.2207 3.2207 0 1.7676 1.4531 3.2227 3.2207 3.2227 1.7676 0 3.2227-1.4551 3.2227-3.2227 0-1.7676-1.4551-3.2207-3.2227-3.2207zm0 2c0.68668 0 1.2227 0.53402 1.2227 1.2207 0 0.68668-0.53598 1.2227-1.2227 1.2227s-1.2207-0.53598-1.2207-1.2227c0-0.68668 0.53402-1.2207 1.2207-1.2207z" stop-color="#000000"/><path id="circle4" d="m29.768 15.365c-1.7676 0-3.2207 1.4551-3.2207 3.2227 0 1.7676 1.4531 3.2207 3.2207 3.2207 1.7676 0 3.2227-1.4531 3.2227-3.2207 0-1.7676-1.4551-3.2227-3.2227-3.2227zm0 2c0.68668 0 1.2227 0.53598 1.2227 1.2227 0 0.68668-0.53598 1.2207-1.2227 1.2207s-1.2207-0.53402-1.2207-1.2207c0-0.68668 0.53402-1.2227 1.2207-1.2227z" stop-color="#000000"/><path id="circle5" d="m11.992 7.5879c-2.3811 0-4.332 1.9529-4.332 4.334 0 2.3811 1.9509 4.332 4.332 4.332 2.3811 0 4.334-1.9509 4.334-4.332 0-2.3811-1.9529-4.334-4.334-4.334zm0 2c1.3002 0 2.334 1.0338 2.334 2.334s-1.0338 2.332-2.334 2.332c-1.3002 0-2.332-1.0318-2.332-2.332s1.0318-2.334 2.332-2.334z" stop-color="#000000"/><path id="circle6" d="m11.992 32.029c-2.3811 0-4.332 1.9509-4.332 4.332 0 2.3811 1.9509 4.334 4.332 4.334 2.3811 0 4.334-1.9529 4.334-4.334s-1.9529-4.332-4.334-4.332zm0 2c1.3002 0 2.334 1.0318 2.334 2.332 0 1.3002-1.0338 2.334-2.334 2.334-1.3002 0-2.332-1.0338-2.332-2.334 0-1.3002 1.0318-2.332 2.332-2.332z" stop-color="#000000"/><path id="circle7" d="m18.658 15.365c-1.7676 0-3.2227 1.4551-3.2227 3.2227 0 1.7676 1.4551 3.2207 3.2227 3.2207 1.7676 0 3.2227-1.4531 3.2227-3.2207 0-1.7676-1.4551-3.2227-3.2227-3.2227zm0 2c0.68668 0 1.2227 0.53598 1.2227 1.2227 0 0.68668-0.53598 1.2207-1.2227 1.2207s-1.2227-0.53402-1.2227-1.2207c0-0.68668 0.53598-1.2227 1.2227-1.2227z" stop-color="#000000"/><path id="circle8" d="m18.658 26.475c-1.7676 0-3.2227 1.4531-3.2227 3.2207 0 1.7676 1.4551 3.2227 3.2227 3.2227 1.7676 0 3.2227-1.4551 3.2227-3.2227 0-1.7676-1.4551-3.2207-3.2227-3.2207zm0 2c0.68668 0 1.2227 0.53402 1.2227 1.2207 0 0.68668-0.53598 1.2227-1.2227 1.2227s-1.2227-0.53598-1.2227-1.2227c0-0.68668 0.53598-1.2207 1.2227-1.2207z" stop-color="#000000"/><path id="path8" d="m15.326 10.922a1 1 0 0 0-1 1 1 1 0 0 0 1 1h17.775a1 1 0 0 0 1-1 1 1 0 0 0-1-1z" stop-color="#000000"/><path id="path9" d="m36.434 14.254a1 1 0 0 0-1 1v17.775a1 1 0 0 0 1 1 1 1 0 0 0 1-1v-17.775a1 1 0 0 0-1-1z" stop-color="#000000"/><path id="path10" d="m15.326 35.361a1 1 0 0 0-1 1 1 1 0 0 0 1 1h17.775a1 1 0 0 0 1-1 1 1 0 0 0-1-1z" stop-color="#000000"/><path id="path11" d="m11.992 14.254a1 1 0 0 0-1 1v17.775a1 1 0 0 0 1 1 1 1 0 0 0 1-1v-17.775a1 1 0 0 0-1-1z" stop-color="#000000"/><path id="path12" d="m18.658 19.809a1 1 0 0 0-1 1v6.666a1 1 0 0 0 1 1 1 1 0 0 0 1-1v-6.666a1 1 0 0 0-1-1z" stop-color="#000000"/><path id="path13" d="m29.768 19.809a1 1 0 0 0-1 1v6.666a1 1 0 0 0 1 1 1 1 0 0 0 1-1v-6.666a1 1 0 0 0-1-1z" stop-color="#000000"/><path id="path14" d="m20.881 17.588a1 1 0 0 0-1 1 1 1 0 0 0 1 1h6.666a1 1 0 0 0 1-1 1 1 0 0 0-1-1z" stop-color="#000000"/><path id="path15" d="m20.881 28.695a1 1 0 0 0-1 1 1 1 0 0 0 1 1h6.6641a1 1 0 0 0 1-1 1 1 0 0 0-1-1z" stop-color="#000000"/><path id="path16" d="m31.574 29.988a1 1 0 0 0-0.70703 0.29297 1 1 0 0 0 0 1.4141l2.7734 2.7734a1 1 0 0 0 1.4141 0 1 1 0 0 0 0-1.4141l-2.7734-2.7734a1 1 0 0 0-0.70703-0.29297z" stop-color="#000000"/><path id="path17" d="m34.482 13.234a1 1 0 0 0-1.4141 0.05664l-2.6543 2.8789a1 1 0 0 0 0.05859 1.4121 1 1 0 0 0 1.4121-0.05664l2.6543-2.8789a1 1 0 0 0-0.05664-1.4121z" stop-color="#000000"/><path id="path18" d="m14.596 13.004a1 1 0 0 0-0.70703 0.29102 1 1 0 0 0 0 1.416l2.7734 2.7734a1 1 0 0 0 1.4141 0 1 1 0 0 0 0-1.4141l-2.7734-2.7754a1 1 0 0 0-0.70703-0.29102z" stop-color="#000000"/><path id="path19" d="m16.789 29.898a1 1 0 0 0-0.70703 0.29297l-2.7969 2.7969a1 1 0 0 0 0 1.4141 1 1 0 0 0 1.4141 0l2.7988-2.7969a1 1 0 0 0 0-1.4141 1 1 0 0 0-0.70898-0.29297z" stop-color="#000000"/></g></svg>
