<?xml version="1.0" encoding="UTF-8"?>
<svg id="a" version="1.1" viewBox="0 0 48 48" xml:space="preserve" xmlns="http://www.w3.org/2000/svg"><defs id="defs1"><style id="style1">.b{fill:none;stroke:#fff;stroke-width:2px;stroke-linecap:round;stroke-linejoin:round;}</style></defs><path id="path1" d="m9.5 4.5c-2.7496 0-5 2.2504-5 5v29c0 2.7496 2.2504 5 5 5h29c2.7496 0 5-2.2504 5-5v-29c0-2.7496-2.2504-5-5-5zm0 2h29c1.6686 0 3 1.3314 3 3v29c0 1.6686-1.3314 3-3 3h-29c-1.6686 0-3-1.3314-3-3v-29c0-1.6686 1.3314-3 3-3z" fill="#fff" stop-color="#000000" stroke-linecap="round" stroke-linejoin="round"/><path id="path2" d="m21.459 31.127a1 1 0 0 0-0.64258 1.2598s0.343 1.2001 1.1914 2.1465c0.4242 0.47317 1.0805 0.95808 1.9355 0.92188 0.85502-0.03621 1.6171-0.58545 2.2754-1.4727l0.91211-1.2285a1 1 0 0 0-0.20703-1.4004 1 1 0 0 0-1.3984 0.20703l-0.91211 1.2305c-0.46242 0.62324-0.71677 0.66436-0.75586 0.66602-0.03909 0.0017-0.15373-0.0282-0.36133-0.25976-0.4152-0.46313-0.77734-1.4277-0.77734-1.4277a1 1 0 0 0-1.2598-0.64258z" fill="#fff" stop-color="#000000" stroke-linecap="round" stroke-linejoin="round"/><path id="ellipse4" transform="matrix(.98692 .16124 -.24634 .96918 0 0)" d="m20.877 13.268c-0.86072 0-1.6488 0.15721-2.3066 0.47656-0.65786 0.31935-1.3359 0.89584-1.3359 1.8066 0 0.9108 0.67808 1.4873 1.3359 1.8066 0.65786 0.31935 1.4459 0.47656 2.3066 0.47656s1.6468-0.15721 2.3047-0.47656c0.65786-0.31936 1.3359-0.89584 1.3359-1.8066 0-0.9108-0.67808-1.4873-1.3359-1.8066-0.65786-0.31936-1.444-0.47656-2.3047-0.47656zm0 2c0.59836 0 1.1314 0.13057 1.4297 0.27539s0.21094 0.2103 0.21094 0.0078c0-0.20249 0.08739-0.13701-0.21094 0.0078-0.29832 0.14482-0.83132 0.27539-1.4297 0.27539s-1.1333-0.13057-1.4316-0.27539c-0.29832-0.14482-0.21094-0.2103-0.21094-0.0078 0 0.20249-0.08738 0.13701 0.21094-0.0078 0.29832-0.14482 0.83328-0.27539 1.4316-0.27539z" fill="#fff" stop-color="#000000" stroke-linecap="round" stroke-linejoin="round"/><path id="use2" transform="matrix(-.98692 .16124 .24634 .96918 0 0)" d="m-26.002 20.863c-0.86072 0-1.6468 0.15721-2.3047 0.47656-0.65786 0.31935-1.3379 0.89389-1.3379 1.8047 0 0.9108 0.68003 1.4873 1.3379 1.8066 0.65786 0.31935 1.444 0.47656 2.3047 0.47656s1.6468-0.15721 2.3047-0.47656c0.65786-0.31935 1.3359-0.89584 1.3359-1.8066 0-0.9108-0.67808-1.4853-1.3359-1.8047-0.65786-0.31935-1.444-0.47656-2.3047-0.47656zm0 2c0.59837 0 1.1333 0.13057 1.4316 0.27539 0.29832 0.14482 0.20898 0.20836 0.20898 0.0059 0-0.2025 0.08934-0.13701-0.20898 0.0078-0.29832 0.14482-0.83327 0.27539-1.4316 0.27539s-1.1333-0.13057-1.4316-0.27539c-0.29832-0.14482-0.21094-0.21031-0.21094-0.0078 0 0.2025-0.08739 0.13896 0.21094-0.0059 0.29832-0.14482 0.83327-0.27539 1.4316-0.27539z" fill="#fff" stop-color="#000000" stroke-linecap="round" stroke-linejoin="round"/><path id="path4" transform="matrix(.9912 -.1324 0 1 0 0)" d="m16.521 22.625c-3.7707 0-6.9746 2.7109-6.9746 6.207 0 3.4962 3.2039 6.209 6.9746 6.209 3.7707 0 6.9746-2.7128 6.9746-6.209 0-3.4961-3.2039-6.207-6.9746-6.207zm0 2c2.8285 0 4.9746 1.9509 4.9746 4.207 0 2.2561-2.1461 4.209-4.9746 4.209-2.8285 0-4.9746-1.9529-4.9746-4.209 0-2.2561 2.1461-4.207 4.9746-4.207z" fill="#fff" stop-color="#000000" stroke-linecap="round" stroke-linejoin="round"/><path id="use3" transform="matrix(-.9912 -.1324 0 1 0 0)" d="m-31.643 16.248c-3.7707 0-6.9746 2.7128-6.9746 6.209s3.2039 6.207 6.9746 6.207c3.7707 0 6.9746-2.7109 6.9746-6.207s-3.2039-6.209-6.9746-6.209zm0 2c2.8286 0 4.9746 1.9529 4.9746 4.209 0 2.2561-2.146 4.207-4.9746 4.207s-4.9746-1.9509-4.9746-4.207c0-2.2561 2.146-4.209 4.9746-4.209z" fill="#fff" stop-color="#000000" stroke-linecap="round" stroke-linejoin="round"/></svg>
