<?xml version="1.0" encoding="UTF-8"?>
<svg id="svg5" version="1.1" viewBox="0 0 48 48" xml:space="preserve" xmlns="http://www.w3.org/2000/svg"><defs id="defs1"><style id="style1">.b{fill:none;stroke:#fff;stroke-linecap:round;stroke-linejoin:round;stroke-width:2px;}</style></defs><path id="path1" d="m7.5254 4.5078c-1.645 0-3 1.355-3 3v33c0 1.645 1.355 3 3 3h33c1.645 1e-6 3-1.355 3-3v-33c0-1.645-1.355-3-3-3zm0 2h33c0.56413 0 1 0.43587 1 1v33c0 0.56413-0.43587 1-1 1h-33c-0.56413 0-1-0.43587-1-1v-33c0-0.56413 0.43587-1 1-1z" fill="#fff" stop-color="#000000" stroke-linecap="round" stroke-linejoin="round"/><path id="path2" d="m23.355 7.3613-13.674 7.8945a1.0001 1.0001 0 0 0-0.5 0.85938l-0.097656 15.893a1.0001 1.0001 0 0 0 0.49805 0.87305l13.842 7.9902a1.0001 1.0001 0 0 0 1 0l13.877-8.0117a1.0001 1.0001 0 0 0 0.5-0.86523v-15.715a1.0001 1.0001 0 0 0-0.5-0.86523l-13.945-8.0527a1.0001 1.0001 0 0 0-1 0zm0.5 2.0215 12.945 7.4746v14.559l-12.877 7.4336-12.838-7.4102 0.0918-14.738z" fill="#fff" stop-color="#000000" stroke-linecap="round" stroke-linejoin="round"/><path id="path3" d="m37.307 15.434-13.768 7.791a1.0001 1.0001 0 0 0-0.50781 0.86328l-0.10352 15.873a1 1 0 0 0 0.99219 1.0059 1 1 0 0 0 1.0078-0.99414l0.09961-15.293 13.264-7.5059a1 1 0 0 0 0.37891-1.3633 1 1 0 0 0-1.3633-0.37695z" fill="#fff" stop-color="#000000" stroke-linecap="round" stroke-linejoin="round"/><path id="path4" d="m10.691 15.262a1 1 0 0 0-1.3672 0.36719 1 1 0 0 0 0.36719 1.3652l13.836 7.9805a1 1 0 0 0 1.3652-0.36719 1 1 0 0 0-0.36523-1.3652z" fill="#fff" stop-color="#000000" stroke-linecap="round" stroke-linejoin="round"/><path id="path5" d="m32.799 29.578a1 1 0 0 0-0.75977 0.09961l-5.2734 3.0469a1 1 0 0 0-0.36719 1.3652 1 1 0 0 0 1.3672 0.36523l5.2734-3.0449a1 1 0 0 0 0.36719-1.3652 1 1 0 0 0-0.60742-0.4668z" fill="#fff" stop-color="#000000" stroke-linecap="round" stroke-linejoin="round"/></svg>
