<?xml version='1.0' encoding='UTF-8'?>
<svg xmlns="http://www.w3.org/2000/svg" version="1.1" viewBox="0 0 48 48" xml:space="preserve"><defs><style>.b{fill:none;stroke:#fff;stroke-linecap:round;stroke-linejoin:round;stroke-width:2px;}</style></defs><path class="b" d="m40.525 5.5079h-33a2 2 0 0 0-2 2v33a2 2 0 0 0 2 2h33a2 2 0 0 0 2-2v-33a2 2 0 0 0-2-2z"/><g class="b"><path d="m12.62 33.129s0.07512 3.9815 3.8312 4.1317c4.7313 0.18925 15.55 0 15.55 0s3.3805 0.07512 3.3805-4.7327c0-5.7137-1.0517-18.555-1.0517-18.555s-0.37561-2.7044-3.681-2.8546c-4.2032-0.19105-14.123 0-14.123 0s-2.5541 0.15024-2.7795 2.8546-1.1268 19.156-1.1268 19.156z"/><path d="m19.137 29.395 3.5495-8.4359h2.8171l3.5871 8.4171"/><path d="m26.255 29.432-2.0846-5.2244-1.972 5.1117"/><path d="m20.94 32.431-1.1644 3.2149h-3.1176l1.202-3.2149"/><path d="m17.526 29.564h13.039s1.2615 0.21288 1.2615 1.295c0 1.0822-1.2083 1.3837-1.2083 1.3837h-13.145s-1.3709-0.30158-1.3709-1.4189c0-0.93141 1.4241-1.2599 1.4241-1.2599z"/><path d="m27.344 32.693 1.108 2.9707h3.0424l-1.2771-3.0459"/></g></svg>