<?xml version='1.0' encoding='UTF-8'?>
<svg xmlns="http://www.w3.org/2000/svg" version="1.1" viewBox="0 0 48 48" xml:space="preserve"><defs><style>.b{fill:none;stroke:#fff;stroke-linecap:round;stroke-linejoin:round;stroke-width:2px;}</style></defs><path class="b" d="m40.525 5.5079h-33a2 2 0 0 0-2 2v33a2 2 0 0 0 2 2h33a2 2 0 0 0 2-2v-33a2 2 0 0 0-2-2z"/><path class="b" d="m36.133 10.438h-24.21a1.4673 1.4673 0 0 0-1.4673 1.4673v24.21a1.4673 1.4673 0 0 0 1.4673 1.4673h24.21a1.4673 1.4673 0 0 0 1.4673-1.4673v-24.21a1.4673 1.4673 0 0 0-1.4673-1.4673z"/><path class="b" d="m13.97 33.648h9.5598"/><polyline class="b" transform="translate(-173.3 -26.585)" points="197.38 40.65 197.38 48.65 201.38 48.65"/><path class="b" d="m19.006 19.382v0.03277c0 1.4636-1.1864 2.65-2.65 2.65h-1e-5c-1.4636 0-2.65-1.1864-2.65-2.65v-2.7c0-1.4636 1.1864-2.65 2.65-2.65v0c1.4636 2e-6 2.65 1.1864 2.65 2.65v0.03277"/></svg>