<?xml version='1.0' encoding='UTF-8'?>
<svg xmlns="http://www.w3.org/2000/svg" id="a" version="1.1" viewBox="0 0 48 48">
 <defs>
  <style>.b{fill:none;stroke:#fff;stroke-width:2px;stroke-linecap:round;stroke-linejoin:round;}</style>
 </defs>
 <path class="b" d="m10.558 22.908 12.586 7.2694-12.586 7.2684m27.329-1e-3h-13.443"/>
 <path class="b" d="m38.5 5.5h-29c-2.2091 0-4 1.7909-4 4v29c0 2.2091 1.7909 4 4 4h29c2.2091 0 4-1.7909 4-4v-29c0-2.2091-1.7909-4-4-4z"/>
 <g transform="translate(-2.1308)" class="b">
  <path d="m27.88 19.049s-0.04714 1.604 1.3669 1.604c1.4141 0 1.8383-1.0451 1.8383-1.0451s0.5892 0.87493 1.8383 0.87493 2.074-0.92354 2.074-0.92354-0.02357 0.94784 1.4612 0.94784c1.4848 0 1.6262-0.7048 1.6262-1.7985v-6.6106s-0.73061-3.9129-4.9257-3.9129c-4.1951 0-5.2792 3.5969-5.2792 3.5969z"/>
  <polyline transform="matrix(.43457 0 0 .28629 -90.43 -9.1512)" points="277.33 80.65 282.33 78 277.33 75.35"/>
  <line x1="34.066" x2="35.713" y1="13.172" y2="13.172"/>
 </g>
</svg>